<svg height="512pt" viewBox="-1 0 512 512" width="512pt" xmlns="http://www.w3.org/2000/svg"><path d="m300.726562 512h-300.726562v-468.128906h300.726562zm0 0" fill="#e0f4fe"/><path d="m0 43.871094h300.726562v107.816406h-300.726562zm0 0" fill="#97de3d"/><g fill="#fed843"><path d="m53.570312 0h29.980469v97.78125h-29.980469zm0 0"/><path d="m108.007812 0h29.980469v97.78125h-29.980469zm0 0"/><path d="m59.78125 232.546875h30.054688v29.980469h-30.054688zm0 0"/><path d="m59.78125 292.511719h30.054688v29.980469h-30.054688zm0 0"/><path d="m59.78125 352.480469h30.054688v29.980469h-30.054688zm0 0"/><path d="m59.78125 412.445312h30.054688v29.980469h-30.054688zm0 0"/></g><path d="m150 43.871094h150.726562v468.128906h-150.726562zm0 0" fill="#bcdbfd"/><path d="m150 43.871094h150.726562v107.816406h-150.726562zm0 0" fill="#59c36a"/><path d="m398.628906 512-42.113281-51.328125v-245.117187h84.226563v245.117187zm0 0" fill="#007a9f"/><path d="m453.84375 245.558594h-110.429688v-189.535156c0-30.445313 24.769532-55.214844 55.214844-55.214844 30.445313 0 55.214844 24.769531 55.214844 55.214844zm0 0" fill="#00607f"/><path d="m117.953125 232.546875h123.230469v29.980469h-123.230469zm0 0" fill="#00d7df"/><path d="m117.953125 292.511719h123.230469v29.980469h-123.230469zm0 0" fill="#00d7df"/><path d="m117.953125 352.480469h123.230469v29.980469h-123.230469zm0 0" fill="#00d7df"/><path d="m117.953125 412.445312h123.230469v29.980469h-123.230469zm0 0" fill="#00d7df"/><path d="m150 232.546875h91.183594v29.980469h-91.183594zm0 0" fill="#00aadf"/><path d="m150 292.511719h91.183594v29.980469h-91.183594zm0 0" fill="#00aadf"/><path d="m150 352.480469h91.183594v29.980469h-91.183594zm0 0" fill="#00aadf"/><path d="m150 412.445312h91.183594v29.980469h-91.183594zm0 0" fill="#00aadf"/><path d="m162.445312 0h29.980469v97.78125h-29.980469zm0 0" fill="#edbe2b"/><path d="m216.882812 0h29.980469v97.78125h-29.980469zm0 0" fill="#edbe2b"/><path d="m398.628906 215.554688v296.445312l42.113282-51.328125v-245.117187zm0 0" fill="#00607f"/><path d="m453.84375 56.023438c0-30.445313-24.769531-55.214844-55.214844-55.214844v244.75h55.214844zm0 0" fill="#00465f"/><path d="m356.515625 423v37.671875l42.113281 51.328125 42.113282-51.328125v-37.671875zm0 0" fill="#00607f"/><path d="m440.742188 460.671875v-37.671875h-42.113282v89zm0 0" fill="#00465f"/><path d="m510.699219 246.847656h-29.980469v-147.910156h-137.304688v-29.980469h167.285157zm0 0" fill="#fed843"/><path d="m398.628906 68.957031v29.980469h82.089844v147.910156h29.980469v-177.890625zm0 0" fill="#edbe2b"/></svg>