<svg height="480pt" viewBox="0 0 480 480" width="480pt" xmlns="http://www.w3.org/2000/svg"><path d="m48 32h384v232h-384zm0 0" fill="#d6d7d8"/><path d="m96 288h288c8.800781 0 16 7.199219 16 16v24h-320v-24c0-8.800781 7.199219-16 16-16zm0 0" fill="#e2c8ac"/><path d="m224 328h32v112h-32zm0 0" fill="#ceb195"/><path d="m40 8h400c8.800781 0 16 7.199219 16 16v16h-432v-16c0-8.800781 7.199219-16 16-16zm0 0" fill="#3f3f3f"/><path d="m440 304v48c0 8.800781-7.199219 16-16 16h-48c-8.800781 0-16 7.199219-16 16s7.199219 16 16 16h64c17.601562 0 32-14.398438 32-32v-64c0-8.800781-7.199219-16-16-16s-16 7.199219-16 16zm0 0" fill="#4a4a56"/><path d="m424 400h16v80h-16zm0 0" fill="#2b2b2b"/><path d="m472 480h-16v-8c0-4.800781-3.199219-8-8-8h-32c-4.800781 0-8 3.199219-8 8v8h-16v-8c0-13.601562 10.398438-24 24-24h32c13.601562 0 24 10.398438 24 24zm0 0" fill="#2b2b2b"/><path d="m40 304v48c0 8.800781 7.199219 16 16 16h48c8.800781 0 16 7.199219 16 16s-7.199219 16-16 16h-64c-17.601562 0-32-14.398438-32-32v-64c0-8.800781 7.199219-16 16-16s16 7.199219 16 16zm0 0" fill="#4a4a56"/><path d="m40 400h16v80h-16zm0 0" fill="#2b2b2b"/><path d="m88 480h-16v-8c0-4.800781-3.199219-8-8-8h-32c-4.800781 0-8 3.199219-8 8v8h-16v-8c0-13.601562 10.398438-24 24-24h32c13.601562 0 24 10.398438 24 24zm0 0" fill="#2b2b2b"/><path d="m184 472v-16c0-8.800781 7.199219-16 16-16h80c8.800781 0 16 7.199219 16 16v16zm0 0" fill="#e2c8ac"/><g fill="#a0a0a0"><path d="m248 88h152v16h-152zm0 0"/><path d="m248 128h152v16h-152zm0 0"/><path d="m248 168h152v16h-152zm0 0"/><path d="m248 208h152v16h-152zm0 0"/></g><path d="m216 152c0 35.199219-28.800781 64-64 64s-64-28.800781-64-64 28.800781-64 64-64v64zm0 0" fill="#f4c167"/><path d="m184 80v40h40c0-22.398438-17.601562-40-40-40zm0 0" fill="#e8821c"/><path d="m40 264h16v-216h368v216h16v-216h24v-24c0-13.601562-10.398438-24-24-24h-400c-13.601562 0-24 10.398438-24 24v24h24zm-8-240c0-4.800781 3.199219-8 8-8h400c4.800781 0 8 3.199219 8 8v8h-416zm0 0"/><path d="m480 368v-64c0-13.601562-10.398438-24-24-24s-24 10.398438-24 24v48c0 4.800781-3.199219 8-8 8h-48c-13.601562 0-24 10.398438-24 24s10.398438 24 24 24h48v40h-8c-13.601562 0-24 10.398438-24 24v8h16v-8c0-4.800781 3.199219-8 8-8h8v16h16v-16h8c4.800781 0 8 3.199219 8 8v8h16v-8c0-13.601562-10.398438-24-24-24h-8v-40c22.398438 0 40-17.601562 40-40zm-112 16c0-4.800781 3.199219-8 8-8h48c13.601562 0 24-10.398438 24-24v-48c0-4.800781 3.199219-8 8-8s8 3.199219 8 8v64c0 13.601562-10.398438 24-24 24h-64c-4.800781 0-8-3.199219-8-8zm0 0"/><path d="m104 360h-48c-4.800781 0-8-3.199219-8-8v-48c0-13.601562-10.398438-24-24-24s-24 10.398438-24 24v64c0 22.398438 17.601562 40 40 40v40h-8c-13.601562 0-24 10.398438-24 24v8h16v-8c0-4.800781 3.199219-8 8-8h8v16h16v-16h8c4.800781 0 8 3.199219 8 8v8h16v-8c0-13.601562-10.398438-24-24-24h-8v-40h48c13.601562 0 24-10.398438 24-24s-10.398438-24-24-24zm0 32h-64c-13.601562 0-24-10.398438-24-24v-64c0-4.800781 3.199219-8 8-8s8 3.199219 8 8v48c0 13.601562 10.398438 24 24 24h48c4.800781 0 8 3.199219 8 8s-3.199219 8-8 8zm0 0"/><path d="m280 432h-16v-96h144v-32c0-13.601562-10.398438-24-24-24h-288c-13.601562 0-24 10.398438-24 24v32h144v96h-16c-13.601562 0-24 10.398438-24 24v24h128v-24c0-13.601562-10.398438-24-24-24zm-192-128c0-4.800781 3.199219-8 8-8h288c4.800781 0 8 3.199219 8 8v16h-304zm144 32h16v96h-16zm56 128h-96v-8c0-4.800781 3.199219-8 8-8h80c4.800781 0 8 3.199219 8 8zm0 0"/><path d="m248 88h152v16h-152zm0 0"/><path d="m248 128h152v16h-152zm0 0"/><path d="m248 168h152v16h-152zm0 0"/><path d="m248 208h152v16h-152zm0 0"/><path d="m152 80c-40 0-72 32-72 72s32 72 72 72 72-32 72-72v-8h-64v-64zm55.199219 80c-4.800781 30.398438-32.800781 52-63.199219 47.199219s-52-32.800781-47.199219-63.199219c3.199219-24.800781 23.199219-44 47.199219-47.199219v63.199219zm0 0"/><path d="m232 120c0-26.398438-21.601562-48-48-48h-8v56h56zm-40-8v-23.199219c11.199219 3.199219 20 12 23.199219 23.199219zm0 0"/></svg>