<svg height="512" viewBox="0 0 64 64" width="512" xmlns="http://www.w3.org/2000/svg"><g id="Resume-Portfolio-Clipboard-Application-Curriculum_Vitae" data-name="Resume-Portfolio-Clipboard-Application-Curriculum Vitae"><rect fill="#a97c50" height="50" rx="4" width="42" x="19" y="11"/><path d="m57 16v33h-6a2.006 2.006 0 0 0 -2 2v6h-25a1 1 0 0 1 -1-1v-40a1 1 0 0 1 1-1h32a1 1 0 0 1 1 1z" fill="#e6e7e8"/><path d="m57 49v7a1 1 0 0 1 -1 1h-7z" fill="#e6e7e8"/><path d="m57 49-8 8v-6a2.006 2.006 0 0 1 2-2z" fill="#bcbec0"/><path d="m29 16h22v3h-22z" fill="#ffb655"/><path d="m51 14v2h-22v-2a4.009 4.009 0 0 1 4-4h3v-3a4 4 0 0 1 8 0v3h3a4.009 4.009 0 0 1 4 4z" fill="#ff9811"/><path d="m36.28 26.72a4 4 0 1 1 -3.28-1.72 4.009 4.009 0 0 1 3.28 1.72z" fill="#ffd422"/><path d="m36.28 40.72a4 4 0 1 1 -3.28-1.72 4.009 4.009 0 0 1 3.28 1.72z" fill="#ffd422"/><path d="m27 58.9v2.1h-9l-1.82-6.18.82-.82 2 .67 1 .33.7-2.8 2.3 1.02.44.2a6 6 0 0 1 3.56 5.48z" fill="#3d9ae2"/><path d="m20.7 52.2-.7 2.8-1-.33v-3.23z" fill="#1e81ce"/><path d="m19 51.44v3.23l-2-.67-1-2 2-1z" fill="#1e81ce"/><path d="m16.18 54.82 1.82 6.18h-6l1.82-6.18 1.18 1.18z" fill="#ed1c24"/><path d="m16 52 1 2-.82.82-1.18 1.18-1.18-1.18-.82-.82 1-2z" fill="#ed1c24"/><path d="m14 52-1 2-3 1-.7-2.8 2.7-1.2z" fill="#1e81ce"/><path d="m13.82 54.82-1.82 6.18h-9v-2.1a6 6 0 0 1 3.56-5.48l2.74-1.22.7 2.8 3-1z" fill="#3d9ae2"/><path d="m22 36v2h-.66a3.014 3.014 0 0 1 -2.91-2.27l-.43-1.73a4 4 0 0 1 -4 4h-6v-2a7 7 0 1 1 14 0z" fill="#57565c"/><path d="m25 41a2.006 2.006 0 0 1 -2 2h-2v-4h2a2.006 2.006 0 0 1 2 2z" fill="#ffb655"/><path d="m9 39v4h-2a2 2 0 0 1 0-4z" fill="#ffb655"/><path d="m18 48v3l-2 1h-2l-2-1v-3z" fill="#ffc477"/><path d="m18 48v2.32a6.958 6.958 0 0 1 -6 0v-2.32z" fill="#ffb655"/><path d="m21.34 38a3.014 3.014 0 0 1 -2.91-2.27l-.43-1.73a4 4 0 0 1 -4 4h-6v4a7 7 0 0 0 14 0v-4z" fill="#ffc477"/><path d="m11 40h2v2h-2z" fill="#ee8700"/><path d="m17 40h2v2h-2z" fill="#ee8700"/><path d="m39 6h2v2h-2z" fill="#ee8700"/><path d="m31.964 26.5h7.071v2h-7.071z" fill="#ff5023" transform="matrix(.707 -.707 .707 .707 -9.048 33.157)"/><path d="m31.964 40.5h7.071v2h-7.071z" fill="#ff5023" transform="matrix(.707 -.707 .707 .707 -18.947 37.257)"/><g fill="#bcbec0"><path d="m42 30h10v2h-10z"/><path d="m42 26h2v2h-2z"/><path d="m46 26h6v2h-6z"/><path d="m42 44h10v2h-10z"/><path d="m42 40h2v2h-2z"/><path d="m46 40h6v2h-6z"/></g></g></svg>