<svg height="512" viewBox="0 0 58 58" width="512" xmlns="http://www.w3.org/2000/svg"><g id="Page-1" fill="none" fill-rule="evenodd"><g id="022---Computer-Video-Chat" fill-rule="nonzero"><path id="Shape" d="m53 2v35l-21 7h-30c-1.10320187-.0032948-1.9967052-.8967981-2-2v-40c.0032948-1.10320187.89679813-1.9967052 2-2h49c1.1032019.0032948 1.9967052.89679813 2 2z" fill="#b0d3f0"/><path id="Shape" d="m53 2v35l-21 7h-30c-1.10320187-.0032948-1.9967052-.8967981-2-2v-6.15c11.34-.98 35.68-6.56 45.75-35.85h5.25c1.1032019.0032948 1.9967052.89679813 2 2z" fill="#90bae1"/><path id="Shape" d="m32 50h-21c-1.1045695 0-2 .8954305-2 2s.8954305 2 2 2h21z" fill="#3b97d3"/><path id="Shape" d="m50 38-18 6h-30c-1.10320187-.0032948-1.9967052-.8967981-2-2v-4z" fill="#3b97d3"/><path id="Shape" d="m32 44v6h-17l3-6z" fill="#2980ba"/><path id="Shape" d="m58 42v15c0 .5522847-.4477153 1-1 1h-24c-.5522847 0-1-.4477153-1-1v-15c0-2.7614237 2.2385763-5 5-5h16c2.7614237 0 5 2.2385763 5 5z" fill="#955ba5"/><path id="Shape" d="m39 44v14h-2v-14c0-.5522847.4477153-1 1-1s1 .4477153 1 1z" fill="#894b9d"/><path id="Shape" d="m53 44v14h-2v-14c0-.5522847.4477153-1 1-1s1 .4477153 1 1z" fill="#894b9d"/><path id="Shape" d="m48.12 31.47c.24 1.63.92 4.22 2.88 5.53 0 0-1 2-6 2s-6-2-6-2c1.96-1.31 2.64-3.9 2.88-5.53z" fill="#f9c795"/><path id="Shape" d="m58 22c0 1.6568542-1.3431458 3-3 3-.1882886.0003363-.3760566-.0197817-.56-.06-1.2330801 4.1862612-5.0759114 7.06041-9.44 7.06041s-8.2069199-2.8741488-9.44-7.06041c-.1839434.0402183-.3717114.0603363-.56.06-1.5884638-.0030627-2.89921-1.2437954-2.9893785-2.8297009-.0901686-1.5859055 1.0714986-2.9672102 2.6493785-3.1502991-3.5-6.21-2.66-15.02-2.66-15.02 3 6 16 1 21 4s2 11 2 11c1.6568542 0 3 1.3431458 3 3z" fill="#fdd7ad"/><path id="Shape" d="m55 19c-2.2803175 3.2423788-6.0379065 5.1211732-10 5-5.28 0-8.46-1.61-10.34-4.98-3.5-6.21-2.66-15.02-2.66-15.02 3 6 16 1 21 4s2 11 2 11z" fill="#a56a43"/><path id="Shape" d="m18 30h2c2.209139 0 4 1.790861 4 4v4h-20v-4c0-2.209139 1.790861-4 4-4z" fill="#ff5364"/><path id="Shape" d="m8.82 23.435c-1.26 3.44-5.76 3.67-8.07 3.53-.1-.007-.372-.025-.75-.053v-8.912c.07828601-2.7229404.68627664-5.4045527 1.79-7.895 3.25-6.84 12.21-6.08 12.21-6.08s8.96-.76 12.22 6.08c3.4 7.14 0 12.53 1.69 15.75.1215845.2316304.1151378.5095838-.0170549.7353282s-.3714453.36737-.6329451.3746718c-2.32.14-6.81-.09-8.07-3.53z" fill="#a56a43"/><path id="Shape" d="m11.62 25.285c.3734785 1.7503156-.2496222 3.5638461-1.62 4.715.0527199 2.1869295 1.8130705 3.9472801 4 4 2.1869295-.0527199 3.9472801-1.8130705 4-4-1.3625176-1.1546473-1.987353-2.9601533-1.63-4.71z" fill="#f9c795"/><path id="Shape" d="m24 18.28c.0013313.6157094-.2426691 1.2065843-.6780424 1.6419576s-1.0262482.6793737-1.6419576.6780424c-.1443497.0020399-.2885034-.0113697-.43-.04-.4299267 1.1199125-1.1390487 2.1113064-2.06 2.88-.8549892.7374191-1.8030903 1.3594003-2.82 1.85-.7337603.3981229-1.5394003.6462736-2.37.73-.8338328-.0833971-1.6428078-.3315281-2.38-.73-1.0105427-.4909999-1.95197947-1.1130206-2.8-1.85-.92803708-.7642842-1.6413793-1.7567603-2.07-2.88-.14149664.0286303-.28565032.0420399-.43.04-.61570941.0013313-1.20658429-.2426691-1.64195761-.6780424s-.67937366-1.0262482-.67804239-1.6419576c-.0255621-1.1674762.84028456-2.1631999 2-2.3v-2.99c2.54.02 8-.36 8-3.99 0 3.63 5.46 4.01 8 3.99v2.99c1.1597154.1368001 2.0255621 1.1325238 2 2.3z" fill="#fdd7ad"/></g></g></svg>