<?xml version="1.0" encoding="iso-8859-1"?>
<!-- Generator: Adobe Illustrator 19.0.0, SVG Export Plug-In . SVG Version: 6.00 Build 0)  -->
<svg version="1.1" id="Layer_1" xmlns="http://www.w3.org/2000/svg" xmlns:xlink="http://www.w3.org/1999/xlink" x="0px" y="0px"
	 viewBox="0 0 491.52 491.52" style="enable-background:new 0 0 491.52 491.52;" xml:space="preserve">
<path style="fill:#EBF0F3;" d="M268.447,0H17.957C8.04,0,0,8.039,0,17.957v455.607c0,9.917,8.04,17.957,17.957,17.957h340.457
	c9.916,0,17.957-8.039,17.957-17.957V107.926L268.447,0z"/>
<path style="fill:#D5D6DB;" d="M268.447,0v89.969c0,9.918,8.039,17.957,17.957,17.957h89.967L268.447,0z"/>
<rect x="43.412" y="275.994" style="fill:#FCD462;" width="42.895" height="61.85"/>
<rect x="43.412" y="337.864" style="fill:#F6C358;" width="42.895" height="12.749"/>
<rect x="105.073" y="337.864" style="fill:#3A556A;" width="42.895" height="12.749"/>
<rect x="105.073" y="202.301" style="fill:#64798A;" width="42.895" height="135.562"/>
<rect x="166.738" y="337.864" style="fill:#2D93BA;" width="42.895" height="12.749"/>
<rect x="166.738" y="243.446" style="fill:#27A2DB;" width="42.895" height="94.418"/>
<rect x="228.398" y="114.944" style="fill:#44C4A1;" width="42.895" height="222.92"/>
<rect x="228.398" y="337.864" style="fill:#3EA69B;" width="42.895" height="12.749"/>
<rect x="290.063" y="180.736" style="fill:#E56353;" width="42.895" height="157.112"/>
<rect x="290.063" y="337.864" style="fill:#D15241;" width="42.895" height="12.749"/>
<g>
	<rect x="43.407" y="387.021" style="fill:#D5D6DB;" width="289.536" height="17.874"/>
	<rect x="43.407" y="434.432" style="fill:#D5D6DB;" width="289.536" height="17.874"/>
</g>
<ellipse style="opacity:0.25;fill:#27A2DB;enable-background:new    ;" cx="280.543" cy="280.544" rx="91.71" ry="91.71"/>
<path style="fill:#3A556A;" d="M353.49,375.766l19.13,19.13l22.277-22.277l-19.13-19.13
	c36.145-47.079,32.778-114.743-10.325-157.846c-46.888-46.888-122.91-46.888-169.799,0.001
	c-46.887,46.888-46.887,122.909,0.001,169.797C238.747,408.544,306.411,411.911,353.49,375.766z M215.692,345.393
	c-35.816-35.816-35.816-93.884,0-129.7s93.884-35.816,129.7,0s35.816,93.884,0,129.7S251.507,381.209,215.692,345.393z"/>
<path style="fill:#2F4859;" d="M366.738,396.867l30.128-30.128c1.5-1.501,3.932-1.501,5.432-0.001l11.423,11.423l-35.561,35.561
	l-11.423-11.423C365.238,400.799,365.238,398.366,366.738,396.867z"/>
<path style="fill:#27A2DB;" d="M374.153,421.424c-1.021-1.021-1.021-2.675-0.001-3.694l43.577-43.577
	c1.02-1.02,2.674-1.02,3.694,0.001l59.588,59.588l-47.271,47.271L374.153,421.424z"/>
<path style="fill:#2D93BA;" d="M481.012,433.741l9.743,9.742c1.02,1.021,1.02,2.675,0,3.695l-43.576,43.576
	c-1.021,1.02-2.675,1.02-3.695,0l-9.742-9.743L481.012,433.741z"/>
<g>
</g>
<g>
</g>
<g>
</g>
<g>
</g>
<g>
</g>
<g>
</g>
<g>
</g>
<g>
</g>
<g>
</g>
<g>
</g>
<g>
</g>
<g>
</g>
<g>
</g>
<g>
</g>
<g>
</g>
</svg>
