<svg height="512pt" viewBox="0 0 512 512" width="512pt" xmlns="http://www.w3.org/2000/svg"><path d="m463.089844 356.941406c0-24.136718-19.570313-43.707031-43.707032-43.707031-24.140624 0-43.707031 19.570313-43.707031 43.707031v20.816406c0 24.136719 19.566407 43.707032 43.707031 43.707032 24.136719 0 43.707032-19.570313 43.707032-43.707032zm0 0" fill="#feccc1"/><path d="m419.382812 313.234375c-3.03125 0-5.988281.3125-8.847656.898437 19.898438 4.089844 34.863282 21.703126 34.863282 42.808594v20.816406c0 21.105469-14.964844 38.71875-34.863282 42.808594 2.859375.585938 5.816406.898438 8.847656.898438 24.136719 0 43.707032-19.570313 43.707032-43.707032v-20.816406c0-24.136718-19.570313-43.707031-43.707032-43.707031zm0 0" fill="#f9b3a7"/><path d="m512 501.59375v-20.105469c0-26.589843-16.839844-50.261719-41.957031-58.984375l-26.335938-9.144531c-4.390625-1.523437-9.007812-2.300781-13.65625-2.300781h-21.339843c-4.648438 0-9.261719.777344-13.652344 2.300781l-26.335938 9.144531c-25.121094 8.722656-41.957031 32.394532-41.957031 58.984375v30.511719h174.828125c5.746094 0 10.40625-4.660156 10.40625-10.40625zm0 0" fill="#8db0ff"/><path d="m470.042969 422.503906-5.835938-2.027344c15.386719 11.582032 24.898438 29.914063 24.898438 49.898438v41.625h12.488281c5.746094 0 10.40625-4.660156 10.40625-10.40625v-20.105469c0-26.589843-16.839844-50.261719-41.957031-58.984375zm0 0" fill="#669af7"/><path d="m136.324219 356.941406c0-24.136718-19.566407-43.707031-43.707031-43.707031-24.136719 0-43.707032 19.570313-43.707032 43.707031v20.816406c0 24.136719 19.570313 43.707032 43.707032 43.707032 24.140624 0 43.707031-19.570313 43.707031-43.707032zm0 0" fill="#feccc1"/><path d="m92.617188 313.234375c-3.027344 0-5.988282.3125-8.84375.898437 19.898437 4.089844 34.859374 21.703126 34.859374 42.808594v20.816406c0 21.105469-14.960937 38.71875-34.859374 42.808594 2.855468.585938 5.8125.898438 8.84375.898438 24.140624 0 43.707031-19.570313 43.707031-43.707032v-20.816406c0-24.136718-19.566407-43.707031-43.707031-43.707031zm0 0" fill="#f9b3a7"/><path d="m185.234375 512v-30.511719c0-26.589843-16.839844-50.261719-41.957031-58.984375l-26.335938-9.144531c-4.390625-1.523437-9.003906-2.300781-13.652344-2.300781h-21.339843c-4.648438 0-9.265625.777344-13.65625 2.300781l-26.335938 9.144531c-25.117187 8.722656-41.957031 32.394532-41.957031 58.984375v20.105469c0 5.746094 4.660156 10.40625 10.40625 10.40625zm0 0" fill="#8db0ff"/><path d="m143.277344 422.503906-3.996094-1.386718c14.910156 11.609374 24.101562 29.628906 24.101562 49.257812v41.625h21.851563v-30.511719c0-26.589843-16.839844-50.261719-41.957031-58.984375zm0 0" fill="#669af7"/><path d="m299.707031 356.941406c0-24.136718-19.566406-43.707031-43.707031-43.707031s-43.707031 19.570313-43.707031 43.707031v20.816406c0 24.136719 19.566406 43.707032 43.707031 43.707032s43.707031-19.570313 43.707031-43.707032zm0 0" fill="#feccc1"/><path d="m256 313.234375c-3.03125 0-5.988281.3125-8.847656.898437 19.898437 4.089844 34.863281 21.703126 34.863281 42.808594v20.816406c0 21.105469-14.964844 38.71875-34.863281 42.808594 2.859375.585938 5.816406.898438 8.847656.898438 24.140625 0 43.707031-19.570313 43.707031-43.707032v-20.816406c0-24.136718-19.566406-43.707031-43.707031-43.707031zm0 0" fill="#f9b3a7"/><path d="m348.617188 512v-30.511719c0-26.589843-16.839844-50.261719-41.957032-58.984375l-26.335937-9.144531c-4.390625-1.523437-9.007813-2.300781-13.652344-2.300781h-21.34375c-4.644531 0-9.261719.777344-13.652344 2.300781l-26.335937 9.144531c-25.117188 8.722656-41.957032 32.394532-41.957032 58.984375v30.511719zm0 0" fill="#8db0ff"/><path d="m306.660156 422.503906-5.835937-2.027344c15.386719 11.582032 24.898437 29.914063 24.898437 49.898438v41.625h22.894532v-30.511719c0-26.589843-16.839844-50.261719-41.957032-58.984375zm0 0" fill="#669af7"/><path d="m92.617188 256h82.210937c5.746094 0 10.40625-4.660156 10.40625-10.40625v-28.097656c0-34.484375-27.953125-62.441406-62.4375-62.441406h-60.359375c-34.484375.003906-62.4375 27.957031-62.4375 62.441406v28.097656c0 5.746094 4.660156 10.40625 10.40625 10.40625zm0 0" fill="#ff6969"/><path d="m127.941406 155.285156c17.535156 11.054688 29.195313 30.582032 29.195313 52.84375v47.871094h17.691406c5.746094 0 10.40625-4.660156 10.40625-10.40625v-28.097656c0-32.75-25.21875-59.59375-57.292969-62.210938zm0 0" fill="#ea4747"/><path d="m136.324219 98.863281c0-24.140625-19.566407-43.707031-43.707031-43.707031-24.136719 0-43.707032 19.566406-43.707032 43.707031v22.894531c0 24.136719 19.570313 43.707032 43.707032 43.707032 24.140624 0 43.707031-19.570313 43.707031-43.707032zm0 0" fill="#feccc1"/><path d="m92.617188 55.152344c-3.027344 0-5.988282.3125-8.84375.898437 19.898437 4.089844 34.859374 21.703125 34.859374 42.808594v22.894531c0 21.109375-14.960937 38.722656-34.859374 42.8125 2.855468.585938 5.8125.894532 8.84375.894532 24.140624 0 43.707031-19.566407 43.707031-43.707032v-22.890625c0-24.140625-19.566407-43.710937-43.707031-43.710937zm0 0" fill="#f9b3a7"/><path d="m501.59375 256h-272.648438c-5.75 0-10.40625-4.660156-10.40625-10.40625v-235.1875c-.003906-5.746094 4.65625-10.40625 10.402344-10.40625h272.652344c5.746094 0 10.40625 4.660156 10.40625 10.40625v235.1875c0 5.746094-4.660156 10.40625-10.40625 10.40625zm0 0" fill="#7ae57d"/><path d="m496.390625 0v256h5.203125c5.746094 0 10.40625-4.660156 10.40625-10.40625v-235.1875c0-5.746094-4.660156-10.40625-10.40625-10.40625zm0 0" fill="#66d166"/><path d="m218.535156 245.59375v-24.976562h293.464844v24.976562c0 5.746094-4.660156 10.40625-10.40625 10.40625h-272.648438c-5.75 0-10.410156-4.660156-10.410156-10.40625zm0 0" fill="#ffd664"/><path d="m496.390625 220.617188v9.367187c0 5.746094-4.660156 10.40625-10.40625 10.40625h-267.449219v5.203125c0 5.746094 4.660156 10.40625 10.40625 10.40625h272.652344c5.746094 0 10.40625-4.65625 10.40625-10.40625v-24.976562zm0 0" fill="#f9c646"/><path d="m338.730469 72.847656c0 22.988282-18.636719 41.625-41.625 41.625s-41.625-18.636718-41.625-41.625c0-22.992187 18.636719-41.628906 41.625-41.628906s41.625 18.636719 41.625 41.628906zm0 0" fill="#ffd664"/><g fill="#636363"><path d="m471.414062 53.59375h-97.820312c-4.3125 0-7.804688-3.496094-7.804688-7.804688 0-4.3125 3.492188-7.804687 7.804688-7.804687h97.820312c4.3125 0 7.804688 3.492187 7.804688 7.804687 0 4.308594-3.492188 7.804688-7.804688 7.804688zm0 0"/><path d="m471.414062 107.707031h-97.820312c-4.3125 0-7.804688-3.492187-7.804688-7.804687s3.492188-7.804688 7.804688-7.804688h97.820312c4.3125 0 7.804688 3.492188 7.804688 7.804688s-3.492188 7.804687-7.804688 7.804687zm0 0"/><path d="m471.414062 159.738281h-212.292968c-4.308594 0-7.804688-3.492187-7.804688-7.804687 0-4.308594 3.496094-7.804688 7.804688-7.804688h212.292968c4.3125 0 7.804688 3.496094 7.804688 7.804688 0 4.3125-3.492188 7.804687-7.804688 7.804687zm0 0"/></g></svg>