<?xml version="1.0" encoding="iso-8859-1"?>
<!-- Generator: Adobe Illustrator 19.0.0, SVG Export Plug-In . SVG Version: 6.00 Build 0)  -->
<svg version="1.1" id="Capa_1" xmlns="http://www.w3.org/2000/svg" xmlns:xlink="http://www.w3.org/1999/xlink" x="0px" y="0px"
	 viewBox="0 0 512 512" style="enable-background:new 0 0 512 512;" xml:space="preserve">
<polygon style="fill:#FFFFFF;" points="175.421,24.198 175.421,132.62 232.922,132.62 256,155.698 279.078,132.62 336.579,132.62 
	336.579,24.198 "/>
<g>
	<rect x="175.42" y="24.2" style="fill:#ACABB1;" width="27.467" height="108.42"/>
	<polygon style="fill:#ACABB1;" points="260.389,132.62 232.922,132.62 256,155.698 269.733,141.964 	"/>
	<rect x="118.22" y="428.29" style="fill:#ACABB1;" width="25.334" height="31.602"/>
</g>
<polygon style="fill:#2488FF;" points="182.692,366.633 182.692,258.146 79.088,258.146 79.088,366.633 64.939,366.633 
	64.939,397.657 196.841,397.657 196.841,366.633 "/>
<polygon style="fill:#005ECE;" points="101.804,366.633 101.804,258.146 79.088,258.146 79.088,366.633 64.939,366.633 
	64.939,397.657 87.656,397.657 87.656,366.633 "/>
<rect x="15.12" y="347.33" style="fill:#FFA733;" width="26.756" height="140.47"/>
<g>
	<rect x="15.12" y="347.33" style="fill:#FF6243;" width="13.378" height="140.47"/>
	<rect x="7.5" y="320.58" style="fill:#FF6243;" width="71.59" height="26.756"/>
</g>
<rect x="219.91" y="347.33" style="fill:#FFA733;" width="26.756" height="140.47"/>
<rect x="219.91" y="347.33" style="fill:#FF6243;" width="13.378" height="140.47"/>
<rect x="182.69" y="320.58" style="fill:#FFA733;" width="71.59" height="26.756"/>
<rect x="182.69" y="320.58" style="fill:#FF6243;" width="20" height="26.756"/>
<rect x="40.747" y="170.04" style="fill:#9BC9FF;" width="180.29" height="88.15"/>
<rect x="182.69" y="258.19" style="fill:#ACABB1;" width="38.34" height="25.05"/>
<rect x="40.747" y="170.04" style="fill:#2488FF;" width="38.34" height="88.15"/>
<rect x="70.934" y="258.19" style="fill:#ACABB1;" width="8.154" height="25.05"/>
<rect x="40.747" y="258.19" style="fill:#787680;" width="38.34" height="25.05"/>
<rect x="368.44" y="428.29" style="fill:#ACABB1;" width="25.334" height="31.602"/>
<polygon style="fill:#2488FF;" points="432.912,366.633 432.912,258.146 329.308,258.146 329.308,366.633 315.159,366.633 
	315.159,397.657 447.061,397.657 447.061,366.633 "/>
<rect x="265.34" y="347.33" style="fill:#FFA733;" width="26.756" height="140.47"/>
<rect x="257.72" y="320.58" style="fill:#FF6243;" width="71.59" height="26.756"/>
<g>
	<rect x="470.13" y="347.33" style="fill:#FFA733;" width="26.756" height="140.47"/>
	<rect x="432.91" y="320.58" style="fill:#FFA733;" width="71.59" height="26.756"/>
</g>
<rect x="290.97" y="170.04" style="fill:#9BC9FF;" width="180.29" height="88.15"/>
<g>
	<rect x="432.91" y="258.19" style="fill:#ACABB1;" width="38.34" height="25.05"/>
	<rect x="290.97" y="258.19" style="fill:#ACABB1;" width="38.34" height="25.05"/>
</g>
<polygon style="fill:#005ECE;" points="352.057,366.633 352.057,258.146 329.341,258.146 329.341,366.633 315.193,366.633 
	315.193,397.657 337.909,397.657 337.909,366.633 "/>
<g>
	<rect x="265.37" y="347.33" style="fill:#FF6243;" width="13.378" height="140.47"/>
	<rect x="470.16" y="347.33" style="fill:#FF6243;" width="13.378" height="140.47"/>
	<rect x="432.94" y="320.58" style="fill:#FF6243;" width="20" height="26.756"/>
</g>
<rect x="291" y="170.04" style="fill:#2488FF;" width="38.34" height="88.15"/>
<rect x="291" y="258.19" style="fill:#787680;" width="38.34" height="25.05"/>
<g>
	<path style="fill:#1D1D1F;" d="M256,166.304l26.185-26.185h61.895V16.698H167.921V140.12h61.894L256,166.304z M182.921,31.698
		h146.158v93.422h-53.107L256,145.091l-19.972-19.972h-53.107V31.698z"/>
	<path style="fill:#1D1D1F;" d="M190.192,250.646H71.588v108.487H57.439v46.024h65.951v15.634h-12.667v31.602H71.588v42.443h15
		v-27.443h36.802v27.443h15v-27.443h36.802v27.443h15v-42.443h-39.135v-31.602H138.39v-15.634h65.95v-46.024h-14.148V250.646z
		 M125.723,452.392V435.79h10.334v16.602H125.723z M189.34,390.157H72.439v-16.024h47.898v-15h-33.75v-93.487h88.604v108.487h14.148
		L189.34,390.157L189.34,390.157z"/>
	<rect x="58.46" y="223.98" style="fill:#1D1D1F;" width="41.25" height="15"/>
</g>
<g>
	<rect x="148.16" y="327.85" style="fill:#FFFFFF;" width="15" height="46"/>
	<rect x="148.16" y="302.85" style="fill:#FFFFFF;" width="15" height="15"/>
	<rect x="148.16" y="277.85" style="fill:#FFFFFF;" width="15" height="15"/>
</g>
<g>
	<path style="fill:#1D1D1F;" d="M59.088,354.833v-15H15v-11.756h44.088v-15H0v41.756h7.618v140.469h41.756V354.833H59.088z
		 M34.374,480.302H22.618V354.833h11.756V480.302z"/>
	<polygon style="fill:#1D1D1F;" points="59.088,275.745 48.247,275.745 48.247,265.692 59.088,265.692 59.088,250.692 
		48.247,250.692 48.247,177.539 213.533,177.539 213.533,250.692 202.692,250.692 202.692,265.692 213.533,265.692 213.533,275.745 
		202.692,275.745 202.692,290.745 228.533,290.745 228.533,162.539 33.247,162.539 33.247,290.745 59.088,290.745 	"/>
</g>
<g>
	<rect x="162.57" y="187.72" style="fill:#FFFFFF;" width="40.62" height="15"/>
	<rect x="112.57" y="187.72" style="fill:#FFFFFF;" width="15" height="15"/>
	<rect x="137.57" y="187.72" style="fill:#FFFFFF;" width="15" height="15"/>
</g>
<g>
	<polygon style="fill:#1D1D1F;" points="226.269,44.309 215.663,54.915 234.761,74.013 215.663,93.112 226.269,103.718 
		255.974,74.013 	"/>
	<rect x="257.7" y="90.92" style="fill:#1D1D1F;" width="33.33" height="15"/>
	<path style="fill:#1D1D1F;" d="M440.412,250.646H321.809v108.487H307.66v46.024h65.951v15.634h-12.668v31.602h-39.134v42.443h15
		v-27.443h36.802v27.443h15v-27.443h36.802v27.443h15v-42.443h-39.135v-31.602H388.61v-15.634h65.95v-46.024h-14.148V250.646z
		 M375.942,452.392V435.79h10.335v16.602H375.942z M439.561,390.157H322.659v-16.024h47.898v-15h-33.749v-93.487h88.604v108.487
		h14.148L439.561,390.157L439.561,390.157z"/>
	<rect x="308.68" y="223.98" style="fill:#1D1D1F;" width="41.25" height="15"/>
</g>
<g>
	<rect x="398.37" y="277.85" style="fill:#FFFFFF;" width="15" height="15"/>
	<rect x="398.37" y="302.85" style="fill:#FFFFFF;" width="15" height="15"/>
	<rect x="398.37" y="327.85" style="fill:#FFFFFF;" width="15" height="46"/>
</g>
<g>
	<path style="fill:#1D1D1F;" d="M309.309,354.833v-15H265.22v-11.756h44.089v-15H202.692v15h44.088v11.756h-44.088v15h9.714v140.469
		h41.756V354.833h3.676v140.469h41.756V354.833H309.309z M239.162,480.302h-11.756V354.833h11.756V480.302z M284.594,480.302
		h-11.756V354.833h11.756V480.302z"/>
	<path style="fill:#1D1D1F;" d="M512,313.077h-59.088v15H497v11.756h-44.088v15h9.714v140.469h41.756V354.833H512V313.077z
		 M489.382,480.302h-11.756V354.833h11.756V480.302z"/>
	<polygon style="fill:#1D1D1F;" points="478.753,162.539 283.467,162.539 283.467,290.745 309.309,290.745 309.309,275.745 
		298.467,275.745 298.467,265.692 309.309,265.692 309.309,250.692 298.467,250.692 298.467,177.539 463.753,177.539 
		463.753,250.692 452.912,250.692 452.912,265.692 463.753,265.692 463.753,275.745 452.912,275.745 452.912,290.745 
		478.753,290.745 	"/>
</g>
<g>
	<rect x="362.79" y="187.72" style="fill:#FFFFFF;" width="15" height="15"/>
	<rect x="412.79" y="187.72" style="fill:#FFFFFF;" width="40.62" height="15"/>
	<rect x="387.79" y="187.72" style="fill:#FFFFFF;" width="15" height="15"/>
</g>
<g>
</g>
<g>
</g>
<g>
</g>
<g>
</g>
<g>
</g>
<g>
</g>
<g>
</g>
<g>
</g>
<g>
</g>
<g>
</g>
<g>
</g>
<g>
</g>
<g>
</g>
<g>
</g>
<g>
</g>
</svg>
